<svg width="15" height="16" viewBox="0 0 15 16" fill="none" xmlns="http://www.w3.org/2000/svg">
<path d="M14.2587 11.3039V13.3039C14.2595 13.4896 14.2215 13.6734 14.1471 13.8435C14.0727 14.0136 13.9636 14.1663 13.8268 14.2918C13.69 14.4173 13.5285 14.5129 13.3526 14.5724C13.1767 14.6319 12.9903 14.654 12.8054 14.6372C10.754 14.4143 8.78341 13.7133 7.05208 12.5906C5.4413 11.567 4.07564 10.2014 3.05208 8.59058C1.9254 6.85138 1.22424 4.87124 1.00541 2.81058C0.988751 2.62622 1.01066 2.44042 1.06974 2.26499C1.12883 2.08957 1.22379 1.92837 1.34859 1.79166C1.47339 1.65494 1.62528 1.54572 1.79461 1.47092C1.96393 1.39613 2.14697 1.35742 2.33208 1.35724H4.33208C4.65562 1.35406 4.96927 1.46863 5.21459 1.6796C5.4599 1.89057 5.62013 2.18354 5.66541 2.50391C5.74983 3.14395 5.90638 3.77239 6.13208 4.37724C6.22177 4.61586 6.24119 4.87519 6.18802 5.1245C6.13485 5.37381 6.01132 5.60265 5.83208 5.78391L4.98541 6.63058C5.93445 8.29961 7.31638 9.68154 8.98541 10.6306L9.83208 9.78391C10.0133 9.60467 10.2422 9.48114 10.4915 9.42797C10.7408 9.3748 11.0001 9.39421 11.2387 9.48391C11.8436 9.70961 12.472 9.86616 13.1121 9.95058C13.4359 9.99626 13.7317 10.1594 13.9431 10.4089C14.1545 10.6584 14.2669 10.977 14.2587 11.3039Z" stroke="white" stroke-linecap="round" stroke-linejoin="round"/>
</svg>
