<svg width="16" height="16" viewBox="0 0 16 16" fill="none" xmlns="http://www.w3.org/2000/svg">
<g clip-path="url(#clip0)">
<path d="M5.99998 14.6667C6.36817 14.6667 6.66665 14.3682 6.66665 14C6.66665 13.6318 6.36817 13.3333 5.99998 13.3333C5.63179 13.3333 5.33331 13.6318 5.33331 14C5.33331 14.3682 5.63179 14.6667 5.99998 14.6667Z" stroke="#2D2626" stroke-width="2" stroke-linecap="round" stroke-linejoin="round"/>
<path d="M13.3334 14.6667C13.7015 14.6667 14 14.3682 14 14C14 13.6318 13.7015 13.3333 13.3334 13.3333C12.9652 13.3333 12.6667 13.6318 12.6667 14C12.6667 14.3682 12.9652 14.6667 13.3334 14.6667Z" stroke="#2D2626" stroke-width="2" stroke-linecap="round" stroke-linejoin="round"/>
<path d="M0.666687 0.666672H3.33335L5.12002 9.59334C5.18098 9.90027 5.34796 10.176 5.59172 10.3722C5.83548 10.5684 6.14049 10.6727 6.45335 10.6667H12.9334C13.2462 10.6727 13.5512 10.5684 13.795 10.3722C14.0387 10.176 14.2057 9.90027 14.2667 9.59334L15.3334 4.00001H4.00002" stroke="#2D2626" stroke-width="2" stroke-linecap="round" stroke-linejoin="round"/>
</g>
<defs>
<clipPath id="clip0">
<rect width="16" height="16" fill="white"/>
</clipPath>
</defs>
</svg>
