<svg width="44" height="44" viewBox="0 0 44 44" fill="none" xmlns="http://www.w3.org/2000/svg">
<path d="M34.6577 2.75H24.0934C23.765 2.74976 23.4499 2.87953 23.2169 3.11094L2.09688 24.2258C1.63455 24.6904 1.375 25.3192 1.375 25.9746C1.375 26.6301 1.63455 27.2588 2.09688 27.7234L12.1516 37.7781C12.6163 38.2405 13.2452 38.5001 13.9008 38.5001C14.5564 38.5001 15.1853 38.2405 15.6501 37.7781L36.7641 16.6719C36.9955 16.4389 37.1252 16.1237 37.125 15.7953V5.225C37.1266 4.90019 37.0639 4.57827 36.9406 4.27778C36.8172 3.97728 36.6357 3.70415 36.4064 3.47411C36.177 3.24407 35.9045 3.06167 35.6044 2.93739C35.3043 2.81312 34.9826 2.74943 34.6577 2.75V2.75Z" stroke="#2D2626" stroke-width="1.6" stroke-linecap="round" stroke-linejoin="round"/>
<path d="M30.25 11.575C29.8643 11.575 29.4873 11.4606 29.1666 11.2464L28.7222 11.9115L29.1666 11.2464C28.846 11.0321 28.596 10.7276 28.4484 10.3712C28.3008 10.0149 28.2622 9.62284 28.3375 9.24458C28.4127 8.86631 28.5984 8.51886 28.8711 8.24614C29.1439 7.97343 29.4913 7.78771 29.8696 7.71247C30.2478 7.63723 30.6399 7.67585 30.9962 7.82344C31.3525 7.97103 31.6571 8.22096 31.8714 8.54164L32.5365 8.09718L31.8714 8.54164C32.0856 8.86232 32.2 9.23933 32.2 9.625C32.2 10.1422 31.9946 10.6382 31.6289 11.0039C31.2632 11.3696 30.7672 11.575 30.25 11.575Z" fill="#FF5240" stroke="#2D2626" stroke-width="1.6"/>
<path d="M19.7656 41.25L42.2813 18.7344C42.3932 18.6215 42.4813 18.4872 42.5404 18.3396C42.5994 18.192 42.6282 18.034 42.625 17.875V6.875" stroke="#2D2626" stroke-width="1.6" stroke-linecap="round" stroke-linejoin="round"/>
<path d="M13 29.5L25.5 17" stroke="#2D2626" stroke-width="1.6" stroke-linecap="round" stroke-linejoin="round"/>
<path d="M10 26.625L19.5 17.125" stroke="#2D2626" stroke-width="1.6" stroke-linecap="round" stroke-linejoin="round"/>
</svg>
