<svg width="28" height="28" viewBox="0 0 28 28" fill="none" xmlns="http://www.w3.org/2000/svg">
<circle cx="14" cy="14" r="14" fill="#514343"/>
<g clip-path="url(#clip0)">
<path d="M13.6491 7.87722C12.5256 7.89078 10.1102 8.07541 8.75917 9.31485C7.75423 10.3106 7.40335 11.7828 7.36223 13.6032C7.3281 15.4171 7.28698 18.8235 10.5704 19.751V21.1637C10.5704 21.1637 10.5499 21.7289 10.9235 21.8448C11.3837 21.9905 11.6458 21.5557 12.0833 21.0884L12.8992 20.1657C15.1458 20.3525 16.8665 19.922 17.0647 19.8582C17.5205 19.7125 20.0882 19.3843 20.5078 15.9775C20.9383 12.4592 20.2982 10.2423 19.1428 9.2396H19.1358C18.7871 8.91847 17.3858 7.89735 14.255 7.88597C14.255 7.88597 14.0227 7.87022 13.6491 7.87678V7.87722ZM13.6876 8.86641C14.0065 8.86422 14.2004 8.87778 14.2004 8.87778C16.8503 8.88478 18.1151 9.68235 18.4135 9.95097C19.3865 10.7848 19.8879 12.7833 19.5208 15.7207C19.1721 18.5688 17.0896 18.7491 16.7042 18.872C16.5401 18.9245 15.0246 19.2982 13.1154 19.1752C13.1154 19.1752 11.6935 20.8911 11.249 21.333C11.1785 21.4104 11.0963 21.4332 11.0438 21.4218C10.9685 21.4034 10.9458 21.3102 10.9502 21.1825L10.9637 18.8379C8.17904 18.0679 8.3431 15.1625 8.37285 13.6448C8.40698 12.1271 8.69179 10.8855 9.53967 10.0446C10.6811 9.01253 12.7321 8.87341 13.6867 8.86641H13.6876ZM13.8976 10.3837C13.8747 10.3834 13.8519 10.3877 13.8307 10.3963C13.8095 10.4049 13.7901 10.4176 13.7738 10.4338C13.7575 10.4499 13.7445 10.469 13.7357 10.4902C13.7268 10.5113 13.7222 10.534 13.7222 10.5569C13.7222 10.6549 13.8018 10.7323 13.8976 10.7323C14.3314 10.7241 14.7625 10.8018 15.1661 10.961C15.5697 11.1202 15.9378 11.3577 16.2492 11.6598C16.8849 12.2772 17.1946 13.1067 17.2064 14.1912C17.2064 14.287 17.2839 14.3667 17.3819 14.3667V14.3597C17.428 14.3598 17.4724 14.3416 17.5053 14.3092C17.5381 14.2767 17.5568 14.2326 17.5573 14.1864C17.5785 13.6759 17.4957 13.1664 17.314 12.6889C17.1322 12.2114 16.8552 11.7759 16.4999 11.4087C15.8073 10.7319 14.9297 10.3832 13.8976 10.3832V10.3837ZM11.5915 10.7848C11.4677 10.7668 11.3414 10.7916 11.2337 10.8553H11.2245C10.9743 11.0019 10.749 11.1872 10.5569 11.4043C10.3972 11.589 10.3105 11.7758 10.2878 11.9556C10.2742 12.0628 10.2834 12.17 10.3154 12.2723L10.3267 12.2793C10.5065 12.8078 10.7415 13.3162 11.0285 13.7948C11.3982 14.4673 11.8531 15.0891 12.3821 15.645L12.3979 15.6678L12.4228 15.6862L12.4385 15.7045L12.4569 15.7203C13.0148 16.2508 13.6382 16.7079 14.3119 17.0805C15.0819 17.4996 15.5492 17.6978 15.8296 17.78V17.7844C15.9119 17.8093 15.9867 17.8207 16.0619 17.8207C16.3009 17.8032 16.5272 17.7062 16.7046 17.5451C16.9207 17.3529 17.104 17.1266 17.2471 16.8753V16.8709C17.3814 16.618 17.3359 16.3787 17.1421 16.2168C16.754 15.8776 16.3342 15.5762 15.8887 15.3169C15.5903 15.155 15.2871 15.253 15.1642 15.4171L14.9021 15.7474C14.7678 15.9115 14.5237 15.8887 14.5237 15.8887L14.5167 15.8931C12.6962 15.428 12.2106 13.5848 12.2106 13.5848C12.2106 13.5848 12.1879 13.3342 12.3563 13.2064L12.6844 12.9422C12.8415 12.8144 12.9509 12.5117 12.7824 12.2128C12.5249 11.7667 12.2242 11.3468 11.8847 10.9594C11.8104 10.8681 11.7063 10.8059 11.5907 10.784L11.5915 10.7848ZM14.2004 11.3046C13.968 11.3046 13.968 11.6555 14.2025 11.6555C14.4914 11.6602 14.7765 11.7217 15.0416 11.8367C15.3067 11.9516 15.5465 12.1176 15.7474 12.3253C15.9306 12.5274 16.0714 12.7643 16.1614 13.0218C16.2515 13.2793 16.2889 13.5523 16.2715 13.8246C16.2723 13.8707 16.2911 13.9146 16.3239 13.947C16.3567 13.9794 16.4008 13.9976 16.4469 13.9978L16.4539 14.007C16.5003 14.0067 16.5448 13.9881 16.5776 13.9553C16.6104 13.9224 16.629 13.878 16.6294 13.8316C16.6451 13.1364 16.429 12.5532 16.005 12.086C15.5789 11.6187 14.9844 11.3567 14.2253 11.3046H14.2004ZM14.4878 12.2478C14.2485 12.2408 14.2393 12.5987 14.4764 12.6057C15.053 12.6355 15.333 12.9268 15.3698 13.5262C15.3706 13.5717 15.3892 13.6151 15.4215 13.6471C15.4539 13.679 15.4975 13.6971 15.543 13.6973H15.55C15.5734 13.6963 15.5964 13.6906 15.6176 13.6807C15.6388 13.6707 15.6578 13.6566 15.6734 13.6392C15.6891 13.6218 15.7012 13.6015 15.7089 13.5794C15.7166 13.5573 15.7199 13.5338 15.7185 13.5105C15.6774 12.7291 15.2512 12.289 14.4948 12.2483H14.4878V12.2478Z" fill="white"/>
</g>
<defs>
<clipPath id="clip0">
<rect width="14" height="14" fill="white" transform="translate(7 7.875)"/>
</clipPath>
</defs>
</svg>
