<svg width="28" height="28" viewBox="0 0 28 28" fill="none" xmlns="http://www.w3.org/2000/svg">
<circle cx="14" cy="14" r="14" fill="#514343"/>
<g clip-path="url(#clip0)">
<path fill-rule="evenodd" clip-rule="evenodd" d="M17.1588 15.3895C16.9849 15.3026 16.1327 14.8837 15.974 14.8254C15.8153 14.7676 15.6998 14.7391 15.5837 14.9129C15.4683 15.0856 15.1363 15.4764 15.0354 15.5919C14.9339 15.708 14.833 15.722 14.6597 15.6356C14.4865 15.5481 13.9277 15.3656 13.2656 14.7752C12.7505 14.3156 12.4022 13.748 12.3013 13.5741C12.2004 13.4009 12.2902 13.307 12.3772 13.2206C12.4553 13.1431 12.5504 13.0182 12.6373 12.9173C12.7242 12.8158 12.7528 12.7435 12.8106 12.6274C12.8689 12.5119 12.8397 12.411 12.796 12.3241C12.7528 12.2371 12.4063 11.3837 12.2617 11.0366C12.1211 10.6989 11.9782 10.745 11.872 10.7391C11.7705 10.7345 11.655 10.7333 11.5395 10.7333C11.424 10.7333 11.2362 10.7765 11.0775 10.9503C10.9182 11.1236 10.4708 11.543 10.4708 12.3964C10.4708 13.2492 11.0915 14.0735 11.1784 14.1896C11.2653 14.3051 12.4005 16.0562 14.1394 16.807C14.5536 16.9855 14.8762 17.0922 15.1276 17.1716C15.5429 17.304 15.9209 17.2853 16.2196 17.2404C16.5521 17.1908 17.2451 16.821 17.3898 16.4161C17.5338 16.0113 17.5338 15.6642 17.4907 15.5919C17.4475 15.5196 17.332 15.4764 17.1582 15.3895H17.1588ZM13.9959 19.7079H13.9936C12.9608 19.7081 11.9469 19.4304 11.0582 18.9041L10.8482 18.7792L8.66542 19.3521L9.24817 17.2241L9.11108 17.0059C8.53366 16.0868 8.22809 15.023 8.22967 13.9376C8.23083 10.7584 10.8173 8.17189 13.9982 8.17189C15.5382 8.17189 16.9861 8.77273 18.0746 9.86239C18.6115 10.3971 19.037 11.0329 19.3266 11.7331C19.6161 12.4333 19.764 13.1839 19.7616 13.9416C19.7604 17.1208 17.1739 19.7079 13.9959 19.7079ZM18.9029 9.03464C18.2602 8.38768 17.4955 7.87471 16.6531 7.52544C15.8106 7.17618 14.9073 6.99758 13.9953 6.99998C10.1722 6.99998 7.0595 10.1121 7.05833 13.937C7.05775 15.1596 7.37683 16.3531 7.98408 17.4049L7 21L10.6773 20.0351C11.6946 20.5894 12.8346 20.8798 13.993 20.8798H13.9959C17.8191 20.8798 20.9317 17.7677 20.9329 13.9422C20.9357 13.0306 20.7578 12.1275 20.4093 11.2852C20.0609 10.4428 19.5489 9.67787 18.9029 9.03464Z" fill="white"/>
</g>
<defs>
<clipPath id="clip0">
<rect width="14" height="14" fill="white" transform="translate(7 7)"/>
</clipPath>
</defs>
</svg>
